<?xml version="1.0" encoding="utf-8"?>
<!-- Generator: Adobe Illustrator 15.0.2, SVG Export Plug-In  -->
<!DOCTYPE svg PUBLIC "-//W3C//DTD SVG 1.1//EN" "http://www.w3.org/Graphics/SVG/1.1/DTD/svg11.dtd" [
	<!ENTITY ns_flows "http://ns.adobe.com/Flows/1.0/">
]>
<svg version="1.1"
	 xmlns="http://www.w3.org/2000/svg" xmlns:xlink="http://www.w3.org/1999/xlink" xmlns:a="http://ns.adobe.com/AdobeSVGViewerExtensions/3.0/"
	 x="0px" y="0px" width="220px" height="78px" viewBox="0 0 220 78" overflow="visible" enable-background="new 0 0 220 78"
	 xml:space="preserve">
<defs>
</defs>
<path fill="#F6F6F6" d="M220.09,55.943c0,1.104-0.896,2-2,2H26.446c-1.104,0-2-0.896-2-2V21.977c0-1.104,0.896-2,2-2H218.09
	c1.104,0,2,0.896,2,2V55.943z"/>
<path fill="#F6F6F6" d="M1.519,19.506C3.805,15.614,30.519,0,34.995,0c4.469,0,32.562,16.415,33.915,19.506
	c1.353,3.087,1.435,37.158,0,39.012c-1.437,1.854-29.583,19.506-33.958,19.506S3.261,61.312,1.519,58.518
	C-0.228,55.725-0.767,23.398,1.519,19.506"/>
<path fill="#FFFFFF" d="M15.853,27.862c1.307-2.225,16.576-11.149,19.135-11.149c2.555,0,18.612,9.383,19.386,11.149
	c0.773,1.765,0.82,21.239,0,22.299c-0.821,1.06-16.909,11.149-19.41,11.149s-18.114-9.552-19.11-11.149
	C14.855,48.564,14.546,30.087,15.853,27.862"/>
<path fill="#38A5D9" d="M9.478,24.146C11.22,21.18,31.58,9.279,34.991,9.279c3.407,0,24.817,12.512,25.848,14.866
	c1.03,2.354,1.095,28.319,0,29.732c-1.095,1.412-22.546,14.866-25.88,14.866c-3.335,0-24.152-12.736-25.48-14.866
	C8.147,51.749,7.736,27.111,9.478,24.146 M18.75,29.734c-0.212,0.311-0.17,18.458,0.037,18.806c0.182,0.309,15.713,9.44,16.168,9.44
	c0.375,0,15.945-8.526,16.086-8.605c0.216-0.121,0.251-0.598,0.012-0.79c-0.269-0.214-8.118-4.634-8.342-4.765
	c-0.226-0.131-0.501-0.159-0.797-0.033c-0.307,0.128-6.95,3.292-6.95,3.292l-7.031-3.973v-8.24l6.988-4.437
	c0,0,7.198,4.082,7.323,4.151c0.257,0.145,0.404,0.091,0.586-0.018c0.105-0.062,7.988-4.603,8.205-4.73
	c0.263-0.156,0.261-0.709,0.062-0.879C51,28.87,35.407,19.557,34.956,19.557C34.507,19.557,18.998,29.367,18.75,29.734"/>
<path fill="#444444" d="M70.964,43.023v-8.085c0-3.332,2.716-5.709,6.357-5.709c2.345,0,4.659,0.648,6.202,3.302
	c0.123,0.247,0.186,0.68-0.216,0.927l-2.222,1.543c-0.525,0.216-0.803,0-1.019-0.371c-0.617-1.08-1.42-1.512-2.499-1.512
	c-1.543,0-2.223,1.111-2.223,2.036v7.869c0,0.895,0.617,1.821,2.13,1.821c1.019,0,1.944-0.587,2.562-1.45
	c0.216-0.217,0.4-0.68,0.863-0.433l2.5,1.327c0.432,0.216,0.648,0.524,0.4,0.926c-1.604,2.716-3.856,3.579-6.479,3.579
	C73.372,48.794,70.964,46.388,70.964,43.023z"/>
<path fill="#444444" d="M96.701,30.125c0-0.463,0.278-0.586,0.772-0.586h2.838c0.494,0,0.771,0.123,0.771,0.586v17.867
	c0,0.463-0.277,0.617-0.771,0.617h-2.838c-0.494,0-0.772-0.154-0.772-0.617v-7.222h-5.308v7.222c0,0.463-0.277,0.617-0.771,0.617
	h-2.869c-0.494,0-0.771-0.154-0.771-0.617V30.125c0-0.463,0.277-0.586,0.771-0.586h2.869c0.433,0,0.771,0.092,0.771,0.586v6.727
	h5.308V30.125z"/>
<path fill="#444444" d="M112.408,29.539c3.549,0,6.049,1.975,6.049,5.739c0,2.129-1.173,4.012-2.531,5.431
	c-0.215,0.278-0.185,0.37-0.03,0.741l2.993,6.449c0.154,0.34,0.031,0.71-0.524,0.71h-3.086c-0.987,0-1.172-0.37-1.357-0.771
	l-2.623-6.048h-1.913v6.202c0,0.463-0.278,0.617-0.771,0.617h-2.87c-0.494,0-0.771-0.154-0.771-0.617V30.279
	c0-0.463,0.154-0.74,0.648-0.74H112.408z M112.069,37.871c0.586,0,1.11-0.402,1.45-0.927c0.37-0.586,0.524-1.203,0.524-1.573
	c0-1.389-0.895-1.913-1.883-1.913h-2.776v4.413H112.069z"/>
<path fill="#444444" d="M128.393,48.794c-3.827,0-6.79-2.283-6.79-5.955v-7.591c0-3.673,2.84-6.019,6.759-6.019
	c3.857,0,6.819,2.346,6.819,6.019v7.591C135.181,46.511,132.281,48.794,128.393,48.794z M130.738,35.248
	c0-1.081-0.617-2.099-2.345-2.099c-1.574,0-2.407,1.018-2.407,2.099v7.591c0,1.018,0.833,2.006,2.376,2.006
	c1.45,0,2.376-0.957,2.376-2.006V35.248z"/>
<path fill="#444444" d="M155.98,48.609h-2.746c-0.432,0-0.74-0.093-0.74-0.556v-7.838l-0.062-0.031l-1.297,3.302l-1.573,3.98
	c-0.216,0.433-0.401,0.648-0.864,0.648h-1.636c-0.493,0-0.771,0.031-1.049-0.524l-1.513-4.043l-1.265-3.271l-0.062,0.031v7.745
	c0,0.463-0.277,0.556-0.771,0.556h-2.777c-0.463,0-0.771-0.216-0.771-0.679V30.218c0-0.401,0.247-0.679,0.771-0.679h2.623
	c0.432,0,0.863-0.062,1.172,0.647c0.803,1.914,1.729,4.289,2.531,6.172l1.852,4.783h0.154l1.913-4.783l2.562-6.172
	c0.154-0.401,0.617-0.647,1.172-0.647h2.376c0.494,0,0.803,0.246,0.803,0.679v17.713C156.783,48.394,156.474,48.609,155.98,48.609z"
	/>
<path fill="#444444" d="M173.909,47.838c0.062,0.247,0.124,0.771-0.493,0.771h-3.426c-0.37,0-0.524-0.186-0.617-0.556l-0.586-2.9
	h-4.722l-0.586,2.9c-0.093,0.401-0.309,0.556-0.587,0.556h-3.425c-0.648,0-0.556-0.433-0.463-0.771l4.443-17.774
	c0.124-0.37,0.401-0.524,0.771-0.524h4.382c0.309,0,0.648,0,0.771,0.524L173.909,47.838z M167.121,38.056l-0.71-3.487h-0.093
	l-0.648,3.487l-0.647,3.456h2.839L167.121,38.056z"/>
<path fill="#444444" d="M186.747,33.458h-3.889l-0.062,14.534c0,0.463-0.277,0.617-0.771,0.617h-2.87
	c-0.432,0-0.74-0.154-0.74-0.617l0.031-14.534h-3.55c-0.493,0-0.647-0.278-0.647-0.741v-2.438c0-0.463,0.154-0.74,0.647-0.74h11.851
	c0.432,0,0.586,0.246,0.586,0.74v2.438C187.333,33.18,187.24,33.458,186.747,33.458z"/>
<path fill="#444444" d="M190.387,48.609c-0.463,0-0.74-0.154-0.74-0.617V30.187c0-0.463,0.277-0.647,0.74-0.647h2.901
	c0.4,0,0.74,0.154,0.74,0.647v17.806c0,0.463-0.277,0.617-0.74,0.617H190.387z"/>
<path fill="#444444" d="M197.917,43.023v-8.085c0-3.332,2.716-5.709,6.357-5.709c2.346,0,4.659,0.648,6.202,3.302
	c0.124,0.247,0.186,0.68-0.216,0.927l-2.222,1.543c-0.524,0.216-0.803,0-1.019-0.371c-0.617-1.08-1.419-1.512-2.499-1.512
	c-1.543,0-2.222,1.111-2.222,2.036v7.869c0,0.895,0.617,1.821,2.129,1.821c1.019,0,1.943-0.587,2.562-1.45
	c0.216-0.217,0.4-0.68,0.863-0.433l2.5,1.327c0.432,0.216,0.647,0.524,0.401,0.926c-1.605,2.716-3.857,3.579-6.48,3.579
	C200.324,48.794,197.917,46.388,197.917,43.023z"/>
</svg>
