<?xml version="1.0" encoding="utf-8"?>
<!-- Generator: Adobe Illustrator 19.0.1, SVG Export Plug-In . SVG Version: 6.00 Build 0)  -->
<svg version="1.1" id="Layer_1" xmlns="http://www.w3.org/2000/svg" xmlns:xlink="http://www.w3.org/1999/xlink" x="0px" y="0px"
	 viewBox="609 -108.4 1418.3 416.4" style="enable-background:new 609 -108.4 1418.3 416.4;" xml:space="preserve">
<style type="text/css">
	.st0{fill:#FFFFFF;}
	.st1{fill:#38A5D9;}
	.st2{fill:#444444;}
</style>
<rect x="670" y="-40.4" class="st0" width="250.5" height="275"/>
<g>
	<path class="st1" d="M617.1-4.3c12.2-20.8,154.8-104.1,178.7-104.1c23.9,0,173.8,87.6,181,104.1s7.7,198.3,0,208.2
		S818.9,308,795.6,308c-23.3,0-169.1-89.2-178.4-104.1C607.8,189,604.9,16.5,617.1-4.3 M682,34.8c-1.5,2.2-1.2,129.3,0.3,131.7
		c1.3,2.2,110,66.1,113.2,66.1c2.6,0,111.7-59.7,112.6-60.3c1.5-0.8,1.8-4.2,0.1-5.5c-1.9-1.5-56.8-32.4-58.4-33.4
		c-1.6-0.9-3.5-1.1-5.6-0.2c-2.1,0.9-48.7,23.1-48.7,23.1l-49.2-27.8V70.8l48.9-31.1c0,0,50.4,28.6,51.3,29.1c1.8,1,2.8,0.6,4.1-0.1
		c0.7-0.4,55.9-32.2,57.5-33.1c1.8-1.1,1.8-5,0.4-6.2c-0.7-0.6-109.9-65.8-113-65.8C792.4-36.4,683.8,32.3,682,34.8"/>
</g>
<g>
	<path class="st2" d="M1047.7,127.9V71.3c0-23.3,19-40,44.5-40c16.4,0,32.6,4.5,43.4,23.1c0.9,1.7,1.3,4.8-1.5,6.5l-15.6,10.8
		c-3.7,1.5-5.6,0-7.1-2.6c-4.3-7.6-9.9-10.6-17.5-10.6c-10.8,0-15.6,7.8-15.6,14.3v55.1c0,6.3,4.3,12.8,14.9,12.8
		c7.1,0,13.6-4.1,17.9-10.2c1.5-1.5,2.8-4.8,6.1-3l17.5,9.3c3,1.5,4.5,3.7,2.8,6.5c-11.2,19-27,25.1-45.4,25.1
		C1064.5,168.3,1047.7,151.4,1047.7,127.9z"/>
	<path class="st2" d="M1227.9,37.6c0-3.2,1.9-4.1,5.4-4.1h19.9c3.5,0,5.4,0.9,5.4,4.1v125.1c0,3.2-1.9,4.3-5.4,4.3h-19.9
		c-3.5,0-5.4-1.1-5.4-4.3v-50.6h-37.2v50.6c0,3.2-1.9,4.3-5.4,4.3h-20.1c-3.5,0-5.4-1.1-5.4-4.3V37.6c0-3.2,1.9-4.1,5.4-4.1h20.1
		c3,0,5.4,0.6,5.4,4.1v47.1h37.2V37.6z"/>
	<path class="st2" d="M1337.9,33.5c24.8,0,42.4,13.8,42.4,40.2c0,14.9-8.2,28.1-17.7,38c-1.5,1.9-1.3,2.6-0.2,5.2l21,45.2
		c1.1,2.4,0.2,5-3.7,5H1358c-6.9,0-8.2-2.6-9.5-5.4l-18.4-42.4h-13.4v43.4c0,3.2-1.9,4.3-5.4,4.3h-20.1c-3.5,0-5.4-1.1-5.4-4.3V38.6
		c0-3.2,1.1-5.2,4.5-5.2L1337.9,33.5L1337.9,33.5z M1335.5,91.8c4.1,0,7.8-2.8,10.2-6.5c2.6-4.1,3.7-8.4,3.7-11
		c0-9.7-6.3-13.4-13.2-13.4h-19.4v30.9H1335.5z"/>
	<path class="st2" d="M1449.8,168.3c-26.8,0-47.5-16-47.5-41.7V73.4c0-25.7,19.9-42.1,47.3-42.1c27,0,47.8,16.4,47.8,42.1v53.2
		C1497.4,152.3,1477,168.3,1449.8,168.3z M1466.2,73.4c0-7.6-4.3-14.7-16.4-14.7c-11,0-16.9,7.1-16.9,14.7v53.2
		c0,7.1,5.8,14,16.6,14c10.2,0,16.6-6.7,16.6-14V73.4H1466.2z"/>
	<path class="st2" d="M1643,167h-19.2c-3,0-5.2-0.6-5.2-3.9v-54.9l-0.4-0.2l-9.1,23.1l-11,27.9c-1.5,3-2.8,4.5-6,4.5h-11.5
		c-3.5,0-5.4,0.2-7.3-3.7l-10.7-28.2l-8.9-22.9l-0.4,0.2v54.2c0,3.2-1.9,3.9-5.4,3.9h-19.4c-3.2,0-5.4-1.5-5.4-4.8v-124
		c0-2.8,1.7-4.8,5.4-4.8h18.4c3,0,6-0.4,8.2,4.5c5.6,13.4,12.1,30,17.7,43.2l13,33.5h1.1l13.4-33.5l17.9-43.2
		c1.1-2.8,4.3-4.5,8.2-4.5h16.6c3.5,0,5.6,1.7,5.6,4.8v124C1648.6,165.5,1646.5,167,1643,167z"/>
	<path class="st2" d="M1768.5,161.6c0.4,1.7,0.9,5.4-3.5,5.4h-24c-2.6,0-3.7-1.3-4.3-3.9l-4.1-20.3h-33.1l-4.1,20.3
		c-0.6,2.8-2.2,3.9-4.1,3.9h-24c-4.5,0-3.9-3-3.2-5.4l31.1-124.5c0.9-2.6,2.8-3.7,5.4-3.7h30.7c2.2,0,4.5,0,5.4,3.7L1768.5,161.6z
		 M1721,93.1l-5-24.4h-0.6l-4.5,24.4l-4.5,24.2h19.9L1721,93.1z"/>
	<path class="st2" d="M1858.4,60.9h-27.2l-0.4,101.8c0,3.2-1.9,4.3-5.4,4.3h-20.1c-3,0-5.2-1.1-5.2-4.3l0.2-101.8h-24.8
		c-3.5,0-4.5-1.9-4.5-5.2V38.6c0-3.2,1.1-5.2,4.5-5.2h83c3,0,4.1,1.7,4.1,5.2v17.1C1862.5,59,1861.9,60.9,1858.4,60.9z"/>
	<path class="st2" d="M1883.9,167c-3.2,0-5.2-1.1-5.2-4.3V38c0-3.2,1.9-4.5,5.2-4.5h20.3c2.8,0,5.2,1.1,5.2,4.5v124.7
		c0,3.2-1.9,4.3-5.2,4.3L1883.9,167L1883.9,167z"/>
	<path class="st2" d="M1936.7,127.9V71.3c0-23.3,19-40,44.5-40c16.4,0,32.6,4.5,43.4,23.1c0.9,1.7,1.3,4.8-1.5,6.5l-15.6,10.8
		c-3.7,1.5-5.6,0-7.1-2.6c-4.3-7.6-9.9-10.6-17.5-10.6c-10.8,0-15.6,7.8-15.6,14.3v55.1c0,6.3,4.3,12.8,14.9,12.8
		c7.1,0,13.6-4.1,17.9-10.2c1.5-1.5,2.8-4.8,6.1-3l17.5,9.3c3,1.5,4.5,3.7,2.8,6.5c-11.2,19-27,25.1-45.4,25.1
		C1953.5,168.3,1936.7,151.4,1936.7,127.9z"/>
</g>
</svg>
